<svg xmlns="http://www.w3.org/2000/svg" width="1024" height="1024" viewBox="0 0 1024 1024" version="1.1">
	<path d="M 485.280 0.736 C 487.909 0.943, 491.959 0.940, 494.280 0.731 C 496.601 0.521, 494.450 0.352, 489.500 0.355 C 484.550 0.358, 482.651 0.530, 485.280 0.736 M 529.750 0.732 C 532.087 0.943, 535.913 0.943, 538.250 0.732 C 540.587 0.522, 538.675 0.349, 534 0.349 C 529.325 0.349, 527.413 0.522, 529.750 0.732 M 484.500 84.659 C 435.411 88.622, 395.960 97.455, 355.042 113.647 C 211.244 170.550, 109.391 299.871, 88.026 452.672 C 82.273 493.819, 82.862 542.455, 89.599 582.500 C 106.277 681.632, 157.546 772.186, 234 837.546 C 296.169 890.694, 371.573 924.635, 452.672 935.974 C 493.819 941.727, 542.455 941.138, 582.500 934.401 C 681.632 917.723, 772.186 866.454, 837.546 790 C 890.694 727.831, 924.635 652.427, 935.974 571.328 C 941.727 530.181, 941.138 481.545, 934.401 441.500 C 917.723 342.368, 866.454 251.814, 790 186.454 C 720.653 127.169, 635.940 92.294, 543.605 85.016 C 531.896 84.094, 494.320 83.866, 484.500 84.659 M 503.326 170.981 C 490.748 173.659, 480.142 182.307, 474.216 194.719 L 470.500 202.500 470.238 363 L 469.975 523.500 561.738 615.157 C 634.529 687.864, 654.559 707.340, 658.621 709.358 C 677.422 718.700, 700.826 712.413, 711.985 695.023 C 720.574 681.639, 721.093 664.612, 713.329 651 C 711.762 648.253, 680.226 615.914, 632.381 567.991 L 554 489.483 554 349.378 C 554 262.414, 553.630 207.320, 553.024 204.124 C 549.548 185.795, 533.252 171.437, 514.835 170.476 C 510.801 170.265, 505.622 170.493, 503.326 170.981 M 1023 489.559 C 1023 495.010, 1023.363 497.894, 1024 497.500 C 1024.550 497.160, 1025 493.309, 1025 488.941 C 1025 484.314, 1024.583 481, 1024 481 C 1023.411 481, 1023 484.520, 1023 489.559 M 0.355 534.500 C 0.352 539.450, 0.521 541.601, 0.731 539.280 C 0.940 536.959, 0.943 532.909, 0.736 530.280 C 0.530 527.651, 0.358 529.550, 0.355 534.500 M 1023.349 534 C 1023.349 538.675, 1023.522 540.587, 1023.732 538.250 C 1023.943 535.913, 1023.943 532.087, 1023.732 529.750 C 1023.522 527.413, 1023.349 529.325, 1023.349 534 M 485.750 1023.732 C 488.087 1023.943, 491.913 1023.943, 494.250 1023.732 C 496.587 1023.522, 494.675 1023.349, 490 1023.349 C 485.325 1023.349, 483.413 1023.522, 485.750 1023.732 M 530.280 1023.736 C 532.909 1023.943, 536.959 1023.940, 539.280 1023.731 C 541.601 1023.521, 539.450 1023.352, 534.500 1023.355 C 529.550 1023.358, 527.651 1023.530, 530.280 1023.736" stroke="none" fill="black" fill-rule="evenodd"/>
</svg>